<svg width="33" height="32" viewBox="0 0 33 32" fill="none" xmlns="http://www.w3.org/2000/svg">
<g clip-path="url(#clip0_1011_305)">
<path d="M3.80005 0V2H5.80005V0H3.80005ZM27.8 0V2H29.8V0H27.8ZM11.8 2V4H21.8V2H11.8ZM21.8 4V6H24.8V4H21.8ZM24.8 6V16H26.8V6H24.8ZM24.8 16H21.8V18H24.8V16ZM21.8 18H20.8H15.8V20H19.8V22H15.8V24H19.8V26H21.8V18ZM19.8 26H13.8V28H14.8V30H18.8V28H19.8V26ZM13.8 26V18H11.8V26H13.8ZM11.8 18V16H8.80005V18H11.8ZM8.80005 16V6H6.80005V16H8.80005ZM8.80005 6H11.8V4H8.80005V6ZM15.8 8V10H17.8V8H15.8ZM17.8 10V16H19.8V10H17.8ZM15.8 10H13.8V16H15.8V10ZM0.800049 10V12H2.80005V10H0.800049ZM30.8 10V12H32.8V10H30.8ZM3.80005 20V22H5.80005V20H3.80005ZM27.8 20V22H29.8V20H27.8Z" fill="white"/>
</g>
<defs>
<clipPath id="clip0_1011_305">
<rect width="32" height="32" fill="white" transform="translate(0.800049)"/>
</clipPath>
</defs>
</svg>
